<svg xmlns="http://www.w3.org/2000/svg" viewBox="0 0 32 32">
  <defs>
    <linearGradient id="leafGrad" x1="0%" y1="0%" x2="100%" y2="100%">
      <stop offset="0%" style="stop-color:#00ff88;stop-opacity:1" />
      <stop offset="100%" style="stop-color:#00f5ff;stop-opacity:1" />
    </linearGradient>
    <filter id="glow">
      <feGaussianBlur stdDeviation="0.5" result="coloredBlur"/>
      <feMerge>
        <feMergeNode in="coloredBlur"/>
        <feMergeNode in="SourceGraphic"/>
      </feMerge>
    </filter>
  </defs>
  <rect width="32" height="32" rx="6" fill="#0a0a1a"/>
  <path filter="url(#glow)" fill="url(#leafGrad)" d="M16 4c-1 3-2 6-2 9 0 4 2 7 2 7s2-3 2-7c0-3-1-6-2-9zm-4 8c-2 1-4 3-5 5 2 0 4-1 6-2 1 3 2 6 3 8 1-2 2-5 3-8 2 1 4 2 6 2-1-2-3-4-5-5-1-2-3-4-4-4-1 0-3 2-4 4z"/>
</svg>
