<svg xmlns="http://www.w3.org/2000/svg" viewBox="0 0 192 192">
  <defs>
    <linearGradient id="leafGrad" x1="0%" y1="0%" x2="100%" y2="100%">
      <stop offset="0%" style="stop-color:#00ff88;stop-opacity:1" />
      <stop offset="100%" style="stop-color:#00f5ff;stop-opacity:1" />
    </linearGradient>
    <filter id="glow">
      <feGaussianBlur stdDeviation="3" result="coloredBlur"/>
      <feMerge>
        <feMergeNode in="coloredBlur"/>
        <feMergeNode in="SourceGraphic"/>
      </feMerge>
    </filter>
  </defs>
  <!-- Background -->
  <rect width="192" height="192" rx="40" fill="#0a0a1a"/>
  <!-- Leaf Icon -->
  <g transform="translate(36,24) scale(1.5)" filter="url(#glow)">
    <path fill="url(#leafGrad)" d="M40 10c-3 8-6 18-6 28 0 12 6 22 6 22s6-10 6-22c0-10-3-20-6-28zm-12 24c-6 3-12 9-15 15 6 0 12-3 18-6 3 9 6 18 9 24 3-6 6-15 9-24 6 3 12 6 18 6-3-6-9-12-15-15-3-6-9-12-12-12s-9 6-12 12z"/>
  </g>
  <!-- V Letter -->
  <text x="96" y="160" font-family="Orbitron, sans-serif" font-size="32" font-weight="bold" fill="#00f5ff" text-anchor="middle">VERDANT</text>
</svg>
